<svg id="Layer_1" data-name="Layer 1" xmlns="http://www.w3.org/2000/svg" viewBox="0 0 280.66 33.64"><defs><style>.cls-1{fill:#00c08b;}.cls-2{fill:#0055b8;}.cls-3{fill:#f9f9fa;}.cls-4{fill:#231f20;}</style></defs><title>biosafe-logo</title><g id="Artwork_1" data-name="Artwork 1"><g id="Logo"><g id="Logo-2" data-name="Logo"><g id="Bottom"><path class="cls-1" d="M31.55,131.43H54a11.57,11.57,0,0,0,.58-1.84H31A11.57,11.57,0,0,0,31.55,131.43Z" transform="translate(-30.67 -114.53)"/><path class="cls-1" d="M42.44,138.78h.67a12.21,12.21,0,0,0,4.28-.9H38.16A12.21,12.21,0,0,0,42.44,138.78Z" transform="translate(-30.67 -114.53)"/><path class="cls-1" d="M32.6,133.57H52.94a11.91,11.91,0,0,0,.84-1.52h-22A13.2,13.2,0,0,0,32.6,133.57Z" transform="translate(-30.67 -114.53)"/><path class="cls-1" d="M36.51,137.26H49a12.49,12.49,0,0,0,1.61-1.17H34.9A12.49,12.49,0,0,0,36.51,137.26Z" transform="translate(-30.67 -114.53)"/><path class="cls-1" d="M34.13,135.47H51.42a12.46,12.46,0,0,0,1.1-1.29H33A11.34,11.34,0,0,0,34.13,135.47Z" transform="translate(-30.67 -114.53)"/><path class="cls-1" d="M54.87,127.13H30.68a11.14,11.14,0,0,0,.21,1.84H54.66A11.14,11.14,0,0,0,54.87,127.13Z" transform="translate(-30.67 -114.53)"/></g><g id="Top"><path class="cls-2" d="M54.88,126.68H30.67a12.11,12.11,0,1,1,24.21,0Z" transform="translate(-30.67 -114.53)"/><path class="cls-3" d="M31,126.07a13.78,13.78,0,0,0,1.82-1.42c.9-.85,1.73-2,3.53-2a3.44,3.44,0,0,1,3,1.56,8.41,8.41,0,0,0,2.7,1.86Zm11.75-4.27-.32,3.63a9.3,9.3,0,0,1-2.27-1.51,3.76,3.76,0,0,1-1.32-3.22c.07-1.87,1.72-3.08,2.58-4A6.06,6.06,0,0,0,42.59,115H43a5.86,5.86,0,0,0,1.14,1.69c.86.93,2.51,2.14,2.58,4a3.78,3.78,0,0,1-1.33,3.22,11.93,11.93,0,0,1-2.26,1.5Zm3.39,2.39a3.47,3.47,0,0,1,3-1.56c1.8.07,2.63,1.17,3.53,2a13.78,13.78,0,0,0,1.82,1.42l-11.06,0A8.31,8.31,0,0,0,46.16,124.19Z" transform="translate(-30.67 -114.53)"/></g></g><g id="BioSafe_Systems" data-name="BioSafe Systems"><path class="cls-4" d="M79.06,132.73A5.11,5.11,0,0,1,78,136a6.57,6.57,0,0,1-2.6,1.95,12.38,12.38,0,0,1-3.07.87,20.82,20.82,0,0,1-2.89.21h-12v-1.62a6.07,6.07,0,0,0,2.27-.32,1.6,1.6,0,0,0,.95-.9,4.61,4.61,0,0,0,.22-1.61V119.49a2.94,2.94,0,0,0-.65-2.2,4.24,4.24,0,0,0-2.79-.62V115l4.87-.11,3.81-.08,2.09,0h.65a20,20,0,0,1,3.84.38,8,8,0,0,1,3.66,1.72A4.68,4.68,0,0,1,78,120.76,4.44,4.44,0,0,1,76.69,124a9.9,9.9,0,0,1-4.39,2.24,11.5,11.5,0,0,1,3.63,1.25,6.17,6.17,0,0,1,2.34,2.21A5.82,5.82,0,0,1,79.06,132.73ZM73,120.91a4,4,0,0,0-.59-2.17,3.94,3.94,0,0,0-1.75-1.44,6.84,6.84,0,0,0-2.83-.53H66v8.58h1.45a6.26,6.26,0,0,0,4.21-1.2A4.1,4.1,0,0,0,73,120.91Zm.65,11.52a5.33,5.33,0,0,0-1.26-3.78,4.64,4.64,0,0,0-3.56-1.35H66v6.23a10.42,10.42,0,0,0,.16,2,1.7,1.7,0,0,0,.8,1.13,3.84,3.84,0,0,0,2,.4A5.22,5.22,0,0,0,72.2,136,4.2,4.2,0,0,0,73.64,132.43Z" transform="translate(-30.67 -114.53)"/><path class="cls-4" d="M89.07,139.05H79.48v-1.62H80a3,3,0,0,0,1.5-.29,1.15,1.15,0,0,0,.57-.79,7.91,7.91,0,0,0,.11-1.5v-5.24a6.21,6.21,0,0,0-.14-1.56,1,1,0,0,0-.69-.67,6.28,6.28,0,0,0-1.86-.23v-1.62L86.72,124v10.84a3.88,3.88,0,0,0,.37,2c.25.36.91.55,2,.55Zm-2-21.94a2.56,2.56,0,0,1-2.56,2.56,2.51,2.51,0,0,1-1.81-.77,2.45,2.45,0,0,1-.76-1.79,2.5,2.5,0,0,1,.75-1.82,2.53,2.53,0,0,1,1.82-.76,2.53,2.53,0,0,1,2.56,2.58Z" transform="translate(-30.67 -114.53)"/><path class="cls-4" d="M106.77,131.78a7.52,7.52,0,0,1-1.16,4.18,7.6,7.6,0,0,1-3.15,2.73,10,10,0,0,1-4.35.94,10.33,10.33,0,0,1-4.21-.86,7.67,7.67,0,0,1-3.25-2.63,7.27,7.27,0,0,1-1.26-4.33A6.85,6.85,0,0,1,92,126a9.93,9.93,0,0,1,6.21-2,9.51,9.51,0,0,1,4.63,1.06,7.32,7.32,0,0,1,2.94,2.84A7.85,7.85,0,0,1,106.77,131.78Zm-4.87-.11a10.09,10.09,0,0,0-.79-4.52A3.16,3.16,0,0,0,98,125.64a3.57,3.57,0,0,0-2.29.66,3.62,3.62,0,0,0-1.15,2,16.63,16.63,0,0,0-.32,3.59,11.27,11.27,0,0,0,.72,4.39c.48,1.12,1.54,1.68,3.16,1.68a3.14,3.14,0,0,0,2.45-.93,4.48,4.48,0,0,0,1.07-2.29A18.16,18.16,0,0,0,101.9,131.67Z" transform="translate(-30.67 -114.53)"/><path class="cls-4" d="M125.63,132.18a6.73,6.73,0,0,1-.47,2.36,8.37,8.37,0,0,1-1.44,2.38,7.35,7.35,0,0,1-2.43,1.86,7.75,7.75,0,0,1-3.39.71,9.16,9.16,0,0,1-3.78-.83,8.18,8.18,0,0,1-3.19-2.47,9.2,9.2,0,0,0-.72,2.42h-1.63v-8.19h1.63a16.39,16.39,0,0,0,1.21,3.32,7.92,7.92,0,0,0,2.2,2.67,5.45,5.45,0,0,0,3.49,1.12,4.1,4.1,0,0,0,2.88-1,3.17,3.17,0,0,0,1.09-2.48,3.09,3.09,0,0,0-.34-1.49,3.56,3.56,0,0,0-1-1.14,11,11,0,0,0-1.74-1.07c-.73-.38-1.57-.79-2.51-1.21a20.33,20.33,0,0,1-3.57-2.07,9.8,9.8,0,0,1-2.11-2,6.46,6.46,0,0,1-1-1.86,5.75,5.75,0,0,1-.28-1.78,6.45,6.45,0,0,1,.87-3.17,6.75,6.75,0,0,1,2.53-2.56,7.33,7.33,0,0,1,3.86-1,7.12,7.12,0,0,1,3.19.75,8.21,8.21,0,0,1,2.63,2.06,10.7,10.7,0,0,0,.58-2.08h1.66v6.67h-1.66q-1.76-5.46-6.14-5.46a3.73,3.73,0,0,0-2.55.84,2.74,2.74,0,0,0-1,2.16,2.84,2.84,0,0,0,.6,1.81,5.18,5.18,0,0,0,1.58,1.32c.65.36,1.71.89,3.17,1.57q2.64,1.26,4.14,2.17a9,9,0,0,1,2.52,2.31A5.51,5.51,0,0,1,125.63,132.18Z" transform="translate(-30.67 -114.53)"/><path class="cls-4" d="M144.77,135.33a4.43,4.43,0,0,1-.55,2.28,3.36,3.36,0,0,1-1.47,1.4,4.75,4.75,0,0,1-2.09.45,4.19,4.19,0,0,1-2.47-.7,2.71,2.71,0,0,1-1.19-1.67,9.44,9.44,0,0,1-5.93,2.37,5,5,0,0,1-3.12-.93,2.93,2.93,0,0,1-1.22-2.44,4.12,4.12,0,0,1,.65-2.27A6.11,6.11,0,0,1,129.3,132a14.81,14.81,0,0,1,3-1.41c1.16-.4,2.62-.83,4.36-1.28v-1a3,3,0,0,0-.59-2,2.72,2.72,0,0,0-2.18-.71,2.78,2.78,0,0,0-2,.56,3,3,0,0,0-.8,1.71,3.19,3.19,0,0,1-.52,1.34,1.9,1.9,0,0,1-1.58.52,2.06,2.06,0,0,1-1.3-.43,1.46,1.46,0,0,1-.57-1.25,3.47,3.47,0,0,1,1.78-2.86,9.86,9.86,0,0,1,5.48-1.22q3.87,0,5.34,1.31a4.45,4.45,0,0,1,1.45,3.49v5.58c0,.71,0,1.22.05,1.55a1.29,1.29,0,0,0,.3.75.92.92,0,0,0,.75.26,1,1,0,0,0,.8-.48,1.88,1.88,0,0,0,.34-1.14Zm-8.1.14v-4.38q-3.36,1.07-4.27,2.07a3.05,3.05,0,0,0-.9,2,1.77,1.77,0,0,0,.49,1.31,1.87,1.87,0,0,0,1.39.49,3.45,3.45,0,0,0,1.72-.41A11.88,11.88,0,0,0,136.67,135.47Z" transform="translate(-30.67 -114.53)"/><path class="cls-4" d="M161.05,118.19a2,2,0,0,1-.7,1.56,2.23,2.23,0,0,1-1.51.61,1.77,1.77,0,0,1-1.59-.73,6.15,6.15,0,0,1-.79-1.87,1.69,1.69,0,0,0-1.68-1.44,1.34,1.34,0,0,0-1.47.89,9.53,9.53,0,0,0-.29,2.72v4.66h3.58v1.63H153v8.63a8.27,8.27,0,0,0,.1,1.55,1.11,1.11,0,0,0,.56.76,3.09,3.09,0,0,0,1.51.27h.65v1.62H145.5v-1.62h.79a3,3,0,0,0,1.43-.26,1.19,1.19,0,0,0,.6-.78,6.14,6.14,0,0,0,.14-1.54v-8.63h-3v-1.63h3v-2.06a14.18,14.18,0,0,1,.15-2.09,7.28,7.28,0,0,1,.65-2.11,5.78,5.78,0,0,1,1.72-2.15A7,7,0,0,1,153.3,115a9.44,9.44,0,0,1,2.51-.35,6.88,6.88,0,0,1,3.19.61,3.75,3.75,0,0,1,1.61,1.42A3.17,3.17,0,0,1,161.05,118.19Z" transform="translate(-30.67 -114.53)"/><path class="cls-4" d="M173,131.28H162.15c0,.23,0,.7.1,1.43a8.24,8.24,0,0,0,.5,2.25,4.21,4.21,0,0,0,1.43,1.93,4.33,4.33,0,0,0,2.72.78,6.75,6.75,0,0,0,2.26-.47,4.89,4.89,0,0,0,2.3-1.84l1.37.94c-1.39,2.22-3.59,3.33-6.62,3.33a11.07,11.07,0,0,1-3.69-.58,8.38,8.38,0,0,1-2.84-1.62A7.19,7.19,0,0,1,157.9,135a7.5,7.5,0,0,1-.62-3,8,8,0,0,1,1-4,7.62,7.62,0,0,1,3-2.89,8.83,8.83,0,0,1,4.4-1.08,7.59,7.59,0,0,1,4.08,1,6.46,6.46,0,0,1,2.47,2.7A8.1,8.1,0,0,1,173,131.28Zm-4.38-1.62q0-4-3.18-4a2.75,2.75,0,0,0-2.35,1.11,5.21,5.21,0,0,0-.91,2.91Z" transform="translate(-30.67 -114.53)"/><path class="cls-4" d="M197.59,132.25a6.59,6.59,0,0,1-.48,2.37,8.23,8.23,0,0,1-1.45,2.39,7.25,7.25,0,0,1-2.43,1.87,7.7,7.7,0,0,1-3.41.71,9.25,9.25,0,0,1-3.8-.83,8.24,8.24,0,0,1-3.2-2.48,9.59,9.59,0,0,0-.73,2.43h-1.63v-8.23h1.63a15.92,15.92,0,0,0,1.22,3.33,7.92,7.92,0,0,0,2.21,2.69,5.48,5.48,0,0,0,3.5,1.13,4.09,4.09,0,0,0,2.9-1,3.45,3.45,0,0,0,.76-4,3.73,3.73,0,0,0-1-1.14,10.42,10.42,0,0,0-1.75-1.08c-.73-.39-1.58-.79-2.52-1.22a20.09,20.09,0,0,1-3.58-2.07,10.23,10.23,0,0,1-2.13-2,7,7,0,0,1-1-1.87,6.12,6.12,0,0,1-.27-1.79,6.52,6.52,0,0,1,.87-3.19,6.87,6.87,0,0,1,2.54-2.57,7.4,7.4,0,0,1,3.88-1,7.2,7.2,0,0,1,3.21.75,8.25,8.25,0,0,1,2.64,2.07,10.83,10.83,0,0,0,.58-2.09h1.67v6.7h-1.67q-1.77-5.48-6.17-5.48a3.76,3.76,0,0,0-2.56.84,2.74,2.74,0,0,0-1,2.17,2.82,2.82,0,0,0,.61,1.82,5,5,0,0,0,1.58,1.32c.66.37,1.72.9,3.19,1.58q2.65,1.26,4.16,2.18a9.07,9.07,0,0,1,2.53,2.33A5.52,5.52,0,0,1,197.59,132.25Z" transform="translate(-30.67 -114.53)"/><path class="cls-4" d="M215,126.41a3.19,3.19,0,0,0-1.19.39,2.71,2.71,0,0,0-.77.88c-.23.4-.64,1.2-1.23,2.41l-5.2,10.78c-1.16,2.37-1.95,4-2.37,4.74a6.43,6.43,0,0,1-1.42,1.87,3,3,0,0,1-2,.69,2.17,2.17,0,0,1-1.42-.49,1.56,1.56,0,0,1-.6-1.26,1.74,1.74,0,0,1,.73-1.57,6.68,6.68,0,0,1,1.91-.82,4.23,4.23,0,0,0,2.41-1.69,14.59,14.59,0,0,0,1.44-2.68l-6.76-11.9a3.05,3.05,0,0,0-.87-1.11,2.06,2.06,0,0,0-1.08-.24v-1.63h8.6v1.63h-.55c-.81,0-1.22.2-1.22.59a3.12,3.12,0,0,0,.5,1.22l3.74,6.58,2.76-5.62a4.85,4.85,0,0,0,.59-1.65.91.91,0,0,0-.52-.82,2.45,2.45,0,0,0-1.24-.3v-1.63H215Z" transform="translate(-30.67 -114.53)"/><path class="cls-4" d="M230.09,134.69a3.9,3.9,0,0,1-.92,2.6,5.57,5.57,0,0,1-2.5,1.65,11,11,0,0,1-3.66.55,15.12,15.12,0,0,1-2.82-.27,9.38,9.38,0,0,1-2.48-.83l-.69,1h-1.38l-.18-4.61H217a4.23,4.23,0,0,0,1.79,2.13,7.17,7.17,0,0,0,4.06,1,10.83,10.83,0,0,0,1.45-.1,3.58,3.58,0,0,0,1.5-.54,1.48,1.48,0,0,0,.72-1.36,1.2,1.2,0,0,0-.74-1.16,15,15,0,0,0-2.75-.88c-1.63-.42-3-.81-4-1.18a7.19,7.19,0,0,1-2.64-1.61,3.53,3.53,0,0,1-1.09-2.69,3.78,3.78,0,0,1,1.93-3.32,9.31,9.31,0,0,1,5-1.22,12.48,12.48,0,0,1,3.13.32,11.87,11.87,0,0,1,2,.69l.43-.9h1.42V128h-1.46a2.66,2.66,0,0,0-.88-1.33,4.82,4.82,0,0,0-1.84-.93,9.55,9.55,0,0,0-2.65-.33,11.47,11.47,0,0,0-2.47.27c-.82.17-1.24.59-1.24,1.26a1,1,0,0,0,.24.67,2.28,2.28,0,0,0,.83.5,20.44,20.44,0,0,0,2.06.6l1.75.44a19.07,19.07,0,0,1,4.75,1.79A3.94,3.94,0,0,1,230.09,134.69Z" transform="translate(-30.67 -114.53)"/><path class="cls-4" d="M243.28,135.75a7,7,0,0,1-2.24,2.88,5.25,5.25,0,0,1-3,.86,4.66,4.66,0,0,1-3.09-.85,3.45,3.45,0,0,1-1.22-1.9,10.83,10.83,0,0,1-.23-2.37V126h-2.68v-1.64a6.42,6.42,0,0,0,2.93-.63,5.21,5.21,0,0,0,2-1.72,6,6,0,0,0,.91-2.33h1.45v4.68h5V126h-5v8.45a8.36,8.36,0,0,0,.21,2.23.92.92,0,0,0,1,.68,1.74,1.74,0,0,0,1.4-.66,9,9,0,0,0,1.06-1.66Z" transform="translate(-30.67 -114.53)"/><path class="cls-4" d="M293.91,139.2h-9.84v-1.63a3.84,3.84,0,0,0,1.74-.28,1.15,1.15,0,0,0,.63-.76,7.26,7.26,0,0,0,.11-1.55v-5.37a4.6,4.6,0,0,0-.52-2.17c-.35-.66-1.14-1-2.38-1a4,4,0,0,0-2.31.67,4.28,4.28,0,0,0-1.5,1.82,6.26,6.26,0,0,0-.52,2.6V135a6.73,6.73,0,0,0,.13,1.59,1.17,1.17,0,0,0,.69.74,4.52,4.52,0,0,0,1.79.26v1.63h-9.65v-1.63a4,4,0,0,0,1.71-.27,1.12,1.12,0,0,0,.64-.76,8.19,8.19,0,0,0,.11-1.56v-5.59c0-1.24-.32-2-1-2.4a3.8,3.8,0,0,0-1.83-.54,4.69,4.69,0,0,0-2.2.55,4,4,0,0,0-1.61,1.42,3.72,3.72,0,0,0-.51,1.26,9.47,9.47,0,0,0-.11,1.56V135a6.73,6.73,0,0,0,.13,1.59,1.16,1.16,0,0,0,.7.74,4.66,4.66,0,0,0,1.79.26v1.63h-9.7v-1.63a4.22,4.22,0,0,0,1.73-.26,1.12,1.12,0,0,0,.65-.75,7.43,7.43,0,0,0,.12-1.58v-6.06c0-1.12-.71-1.67-2.14-1.67h-.91v-1.63l7.49-1.53a20.24,20.24,0,0,1,.14,2.7,10.62,10.62,0,0,1,2.67-2,7,7,0,0,1,3.25-.72,8.3,8.3,0,0,1,3.3.68,4.53,4.53,0,0,1,2.38,2.48,8.72,8.72,0,0,1,3.1-2.54,8,8,0,0,1,3.07-.62,6.37,6.37,0,0,1,4.33,1.33,5.16,5.16,0,0,1,1.52,4.08V135a8.08,8.08,0,0,0,.1,1.5,1.15,1.15,0,0,0,.57.8,3,3,0,0,0,1.49.29h.62Z" transform="translate(-30.67 -114.53)"/><path class="cls-4" d="M309.43,134.69a3.9,3.9,0,0,1-.92,2.6,5.57,5.57,0,0,1-2.5,1.65,11,11,0,0,1-3.66.55,15.12,15.12,0,0,1-2.82-.27,9.38,9.38,0,0,1-2.48-.83l-.69,1H295l-.17-4.61h1.49a4.23,4.23,0,0,0,1.79,2.13,7.17,7.17,0,0,0,4.06,1,10.83,10.83,0,0,0,1.45-.1,3.58,3.58,0,0,0,1.5-.54,1.48,1.48,0,0,0,.72-1.36,1.22,1.22,0,0,0-.74-1.16,15.31,15.31,0,0,0-2.75-.88c-1.64-.42-3-.81-4-1.18a7.19,7.19,0,0,1-2.64-1.61,3.53,3.53,0,0,1-1.09-2.69,3.78,3.78,0,0,1,1.93-3.32,9.31,9.31,0,0,1,5-1.22,12.53,12.53,0,0,1,3.13.32,11.87,11.87,0,0,1,2,.69l.43-.9h1.42V128H307a2.66,2.66,0,0,0-.88-1.33,4.82,4.82,0,0,0-1.84-.93,9.6,9.6,0,0,0-2.65-.33,11.47,11.47,0,0,0-2.47.27c-.83.17-1.24.59-1.24,1.26a1,1,0,0,0,.24.67,2.28,2.28,0,0,0,.83.5,20.87,20.87,0,0,0,2.05.6l1.76.44a18.83,18.83,0,0,1,4.74,1.79A3.93,3.93,0,0,1,309.43,134.69Z" transform="translate(-30.67 -114.53)"/><path class="cls-4" d="M259.4,131.28H248.55c0,.23,0,.7.09,1.43a8.62,8.62,0,0,0,.5,2.25,4.28,4.28,0,0,0,1.43,1.93,4.36,4.36,0,0,0,2.73.78,6.85,6.85,0,0,0,2.26-.47,4.87,4.87,0,0,0,2.29-1.84l1.38.94q-2.09,3.33-6.62,3.33a11.09,11.09,0,0,1-3.7-.58,8.33,8.33,0,0,1-2.83-1.62,7.22,7.22,0,0,1-1.79-2.46,7.49,7.49,0,0,1-.61-3,7.88,7.88,0,0,1,1-4,7.59,7.59,0,0,1,2.95-2.89,8.86,8.86,0,0,1,4.4-1.08,7.65,7.65,0,0,1,4.09,1,6.5,6.5,0,0,1,2.46,2.7A8.1,8.1,0,0,1,259.4,131.28ZM255,129.66q0-4-3.18-4a2.76,2.76,0,0,0-2.36,1.11,5.21,5.21,0,0,0-.91,2.91Z" transform="translate(-30.67 -114.53)"/><path class="cls-4" d="M309.28,124.84a.92.92,0,0,1,.08-.4,1,1,0,0,1,.22-.32,1,1,0,0,1,.32-.23,1.1,1.1,0,0,1,.4-.08,1,1,0,0,1,.4.08,1,1,0,0,1,.33.23,1,1,0,0,1,.22.32,1.1,1.1,0,0,1,.08.4,1.06,1.06,0,0,1-.08.4,1.19,1.19,0,0,1-.22.33,1.12,1.12,0,0,1-.33.22,1,1,0,0,1-.4.08,1.1,1.1,0,0,1-.4-.08,1.21,1.21,0,0,1-.32-.22,1.19,1.19,0,0,1-.22-.33A.9.9,0,0,1,309.28,124.84Zm.18,0a.72.72,0,0,0,.07.33.8.8,0,0,0,.18.27.91.91,0,0,0,.27.18.79.79,0,0,0,.65,0,.91.91,0,0,0,.27-.18.8.8,0,0,0,.18-.27.81.81,0,0,0,0-.66.8.8,0,0,0-.18-.27.91.91,0,0,0-.27-.18.79.79,0,0,0-.65,0,.91.91,0,0,0-.27.18.8.8,0,0,0-.18.27A.72.72,0,0,0,309.46,124.84Zm.45-.59h.45a.49.49,0,0,1,.32.09.36.36,0,0,1,.1.26.32.32,0,0,1-.08.23.37.37,0,0,1-.2.09l.3.5h-.23l-.29-.48h-.16v.48h-.21Zm.21.51h.26l.09,0a.18.18,0,0,0,.07,0,.21.21,0,0,0,0-.18.18.18,0,0,0-.07,0l-.09,0h-.26Z" transform="translate(-30.67 -114.53)"/></g></g></g></svg>