<svg xmlns="http://www.w3.org/2000/svg" viewBox="0 0 352.62 42.35"><defs><style>.cls-1{fill:#fff;}</style></defs><title>Asset 2</title><g id="Layer_2" data-name="Layer 2"><g id="Layer_1-2" data-name="Layer 1"><g id="Artwork_5" data-name="Artwork 5"><g id="Logo"><g id="Logo-2" data-name="Logo"><g id="Bottom"><path class="cls-1" d="M1.12,22.1H29.67a15.41,15.41,0,0,0,.74-2.33H.38A15.41,15.41,0,0,0,1.12,22.1Z"/><path class="cls-1" d="M15,31.46h.85a15.43,15.43,0,0,0,5.44-1.16H9.53A15.38,15.38,0,0,0,15,31.46Z"/><path class="cls-1" d="M2.46,24.82H28.33a15,15,0,0,0,1.06-1.93H1.4A15,15,0,0,0,2.46,24.82Z"/><path class="cls-1" d="M7.43,29.52H23.36A15.11,15.11,0,0,0,25.41,28h-20A15.11,15.11,0,0,0,7.43,29.52Z"/><path class="cls-1" d="M4.4,27.25h22a15.45,15.45,0,0,0,1.39-1.64H3A15.45,15.45,0,0,0,4.4,27.25Z"/><path class="cls-1" d="M30.78,16.65H0A15,15,0,0,0,.28,19H30.51A15,15,0,0,0,30.78,16.65Z"/></g><path class="cls-1" d="M15.39.67A15.39,15.39,0,0,0,0,16.07H30.79A15.39,15.39,0,0,0,15.39.67ZM.44,15.29a17.11,17.11,0,0,0,2.32-1.81C3.9,12.41,5,11,7.25,10.92a4.38,4.38,0,0,1,3.83,2,10.71,10.71,0,0,0,3.43,2.37Zm15-5.43L15,14.48a11.32,11.32,0,0,1-2.88-1.93,4.7,4.7,0,0,1-1.68-4.08c.08-2.39,2.19-3.92,3.28-5.11a7.67,7.67,0,0,0,1.46-2.15h.49a7.28,7.28,0,0,0,1.44,2.15c1.09,1.19,3.2,2.72,3.28,5.11a4.8,4.8,0,0,1-1.68,4.08,14.77,14.77,0,0,1-2.88,1.91Zm4.31,3a4.4,4.4,0,0,1,3.84-2c2.28.08,3.35,1.49,4.49,2.56a17.11,17.11,0,0,0,2.32,1.81l-14.07,0A10.61,10.61,0,0,0,19.7,12.9Z"/></g><g id="BioSafe_Systems" data-name="BioSafe Systems"><path class="cls-1" d="M60.2,22.91a6.45,6.45,0,0,1-1.29,4.15,8.28,8.28,0,0,1-3.26,2.44,15.51,15.51,0,0,1-3.87,1.1,25.85,25.85,0,0,1-3.65.27H33V28.82a7.58,7.58,0,0,0,2.86-.4,2.07,2.07,0,0,0,1.2-1.13,6,6,0,0,0,.28-2v-19a3.73,3.73,0,0,0-.83-2.77q-.81-.78-3.51-.78V.6L39.16.47,44,.37c1.25,0,2.13,0,2.63,0h.82a25.82,25.82,0,0,1,4.83.48A10.13,10.13,0,0,1,56.83,3a5.89,5.89,0,0,1,2.08,4.86,5.6,5.6,0,0,1-1.69,4.09,12.79,12.79,0,0,1-5.53,2.83,14.39,14.39,0,0,1,4.57,1.56,7.92,7.92,0,0,1,2.94,2.79A7.29,7.29,0,0,1,60.2,22.91ZM52.56,8a4.94,4.94,0,0,0-.75-2.72,4.82,4.82,0,0,0-2.2-1.82,8.6,8.6,0,0,0-3.56-.66H43.71v10.8h1.82q3.59,0,5.3-1.51A5.17,5.17,0,0,0,52.56,8Zm.82,14.51a6.69,6.69,0,0,0-1.59-4.76,5.81,5.81,0,0,0-4.48-1.7h-3.6v7.84a13.06,13.06,0,0,0,.2,2.57,2.18,2.18,0,0,0,1,1.42,5,5,0,0,0,2.54.5A6.58,6.58,0,0,0,51.57,27,5.28,5.28,0,0,0,53.38,22.53Z"/><path class="cls-1" d="M72.8,30.87H60.73V28.82h.65a3.82,3.82,0,0,0,1.87-.35,1.48,1.48,0,0,0,.73-1,10,10,0,0,0,.13-1.89V19a8,8,0,0,0-.17-2,1.31,1.31,0,0,0-.86-.84,7.37,7.37,0,0,0-2.35-.29V13.84l9.11-1.91V25.58a4.9,4.9,0,0,0,.47,2.55q.47.69,2.49.69ZM70.29,3.24a3.11,3.11,0,0,1-1,2.28,3.18,3.18,0,0,1-4.55,0,3.07,3.07,0,0,1-1-2.26,3.1,3.1,0,0,1,1-2.28,3.24,3.24,0,0,1,4.57,0A3.14,3.14,0,0,1,70.29,3.24Z"/><path class="cls-1" d="M95.09,21.71A9.4,9.4,0,0,1,93.62,27a9.51,9.51,0,0,1-4,3.43,12.66,12.66,0,0,1-5.48,1.19,13.06,13.06,0,0,1-5.3-1.09,9.65,9.65,0,0,1-4.09-3.31,9.11,9.11,0,0,1-1.59-5.44,8.65,8.65,0,0,1,3.29-7.33,12.59,12.59,0,0,1,7.82-2.5,12,12,0,0,1,5.82,1.34,9.11,9.11,0,0,1,3.7,3.57A9.79,9.79,0,0,1,95.09,21.71ZM89,21.58a12.74,12.74,0,0,0-1-5.69C87.29,14.61,86,14,84.07,14a4.51,4.51,0,0,0-2.88.83,4.51,4.51,0,0,0-1.44,2.58,19.87,19.87,0,0,0-.42,4.52,14,14,0,0,0,.92,5.53c.6,1.41,1.93,2.12,4,2.12a3.93,3.93,0,0,0,3.08-1.17,5.61,5.61,0,0,0,1.36-2.89A23.07,23.07,0,0,0,89,21.58Z"/><path class="cls-1" d="M118.83,22.22a8.32,8.32,0,0,1-.6,3,10.49,10.49,0,0,1-1.81,3,9.2,9.2,0,0,1-3,2.33,9.62,9.62,0,0,1-4.27.9,11.83,11.83,0,0,1-4.77-1,10.65,10.65,0,0,1-4-3.11,12.43,12.43,0,0,0-.91,3h-2V20h2A20.05,20.05,0,0,0,101,24.18a9.88,9.88,0,0,0,2.76,3.36A6.82,6.82,0,0,0,108.1,29a5.18,5.18,0,0,0,3.63-1.25,4,4,0,0,0,1.37-3.13,4,4,0,0,0-.42-1.87,4.55,4.55,0,0,0-1.22-1.43,14.69,14.69,0,0,0-2.19-1.36c-.93-.48-2-1-3.17-1.52a26.73,26.73,0,0,1-4.49-2.6A12.5,12.5,0,0,1,99,13.26a8.32,8.32,0,0,1-1.25-2.35,7.52,7.52,0,0,1-.34-2.24,8.11,8.11,0,0,1,1.09-4,8.49,8.49,0,0,1,3.19-3.22A9.23,9.23,0,0,1,106.5.2a8.92,8.92,0,0,1,4,.94,10.3,10.3,0,0,1,3.31,2.59,13,13,0,0,0,.74-2.62h2.09v8.4h-2.09q-2.22-6.87-7.74-6.87a4.74,4.74,0,0,0-3.21,1.06,3.46,3.46,0,0,0-1.21,2.72,3.54,3.54,0,0,0,.76,2.28,6.46,6.46,0,0,0,2,1.66c.82.45,2.15,1.11,4,2,2.22,1.06,3.95,2,5.21,2.74A11.16,11.16,0,0,1,117.53,18,6.9,6.9,0,0,1,118.83,22.22Z"/><path class="cls-1" d="M142.93,26.18a5.69,5.69,0,0,1-.69,2.88,4.29,4.29,0,0,1-1.86,1.75,5.91,5.91,0,0,1-2.63.57,5.22,5.22,0,0,1-3.11-.88,3.4,3.4,0,0,1-1.49-2.1,11.92,11.92,0,0,1-7.47,3,6.29,6.29,0,0,1-3.93-1.17,3.69,3.69,0,0,1-1.54-3.08,5.14,5.14,0,0,1,.83-2.85A7.58,7.58,0,0,1,123.45,22a18.32,18.32,0,0,1,3.79-1.77c1.46-.51,3.29-1,5.49-1.61V17.36a3.75,3.75,0,0,0-.75-2.48,3.43,3.43,0,0,0-2.74-.9,3.51,3.51,0,0,0-2.47.71,3.7,3.7,0,0,0-1,2.15,3.9,3.9,0,0,1-.66,1.68,2.33,2.33,0,0,1-2,.66,2.66,2.66,0,0,1-1.65-.54,1.84,1.84,0,0,1-.71-1.57,4.36,4.36,0,0,1,2.24-3.6q2.25-1.55,6.89-1.54,4.89,0,6.73,1.65a5.61,5.61,0,0,1,1.83,4.4v7a18.61,18.61,0,0,0,.07,2,1.56,1.56,0,0,0,.36.94,1.27,1.27,0,0,0,1,.32,1.25,1.25,0,0,0,1-.6,2.38,2.38,0,0,0,.43-1.44Zm-10.2.18V20.84q-4.23,1.34-5.37,2.62a3.82,3.82,0,0,0-1.15,2.5,2.19,2.19,0,0,0,.63,1.64,2.38,2.38,0,0,0,1.75.62,4.42,4.42,0,0,0,2.16-.51A14,14,0,0,0,132.73,26.36Z"/><path class="cls-1" d="M163.42,4.6a2.49,2.49,0,0,1-.88,2,2.83,2.83,0,0,1-1.9.76,2.25,2.25,0,0,1-2-.91,7.91,7.91,0,0,1-1-2.35,2.14,2.14,0,0,0-2.11-1.83,1.7,1.7,0,0,0-1.85,1.13,11.6,11.6,0,0,0-.37,3.43v5.87h4.51v2h-4.51V25.58a10.14,10.14,0,0,0,.13,2,1.43,1.43,0,0,0,.7,1,4,4,0,0,0,1.9.33h.83v2.05h-13V28.82h1a3.88,3.88,0,0,0,1.8-.32,1.51,1.51,0,0,0,.76-1,7.85,7.85,0,0,0,.18-1.93V14.71h-3.74v-2h3.74v-2.6a20.67,20.67,0,0,1,.17-2.64,9.38,9.38,0,0,1,.83-2.65,7.21,7.21,0,0,1,2.16-2.7A8.55,8.55,0,0,1,153.67.63,11.78,11.78,0,0,1,156.82.2a8.76,8.76,0,0,1,4,.77,4.6,4.6,0,0,1,2,1.79A3.9,3.9,0,0,1,163.42,4.6Z"/><path class="cls-1" d="M178.48,21.09H164.81q0,.42.12,1.8a10.56,10.56,0,0,0,.63,2.82,5.17,5.17,0,0,0,1.8,2.43,5.44,5.44,0,0,0,3.43,1,8.66,8.66,0,0,0,2.84-.6,6,6,0,0,0,2.89-2.31l1.74,1.18q-2.62,4.2-8.34,4.2a14,14,0,0,1-4.65-.73,10.41,10.41,0,0,1-3.57-2.05,8.65,8.65,0,0,1-2.24-3.09,9.39,9.39,0,0,1-.78-3.82,9.9,9.9,0,0,1,1.3-5,9.58,9.58,0,0,1,3.72-3.64,11.19,11.19,0,0,1,5.53-1.36,9.59,9.59,0,0,1,5.15,1.31,8.15,8.15,0,0,1,3.1,3.4A10.16,10.16,0,0,1,178.48,21.09ZM173,19c0-3.37-1.34-5.06-4-5.06a3.45,3.45,0,0,0-3,1.4A6.52,6.52,0,0,0,164.86,19Z"/><path class="cls-1" d="M209.42,22.31a8.37,8.37,0,0,1-.6,3,10.44,10.44,0,0,1-1.82,3,9.33,9.33,0,0,1-3.07,2.35,9.7,9.7,0,0,1-4.29.9,11.81,11.81,0,0,1-4.79-1.05,10.64,10.64,0,0,1-4-3.12,12.13,12.13,0,0,0-.91,3.06h-2.06V20.08h2.06a20.14,20.14,0,0,0,1.54,4.19,9.92,9.92,0,0,0,2.78,3.39,6.93,6.93,0,0,0,4.41,1.41,5.19,5.19,0,0,0,3.65-1.25,4.08,4.08,0,0,0,1.37-3.14,4,4,0,0,0-.42-1.88A4.51,4.51,0,0,0,202,21.36a14.35,14.35,0,0,0-2.2-1.36q-1.4-.73-3.18-1.53a26.57,26.57,0,0,1-4.51-2.61,12.45,12.45,0,0,1-2.67-2.56,8.23,8.23,0,0,1-1.25-2.36,7.55,7.55,0,0,1-.35-2.25,8.22,8.22,0,0,1,1.1-4,8.55,8.55,0,0,1,3.2-3.23A9.25,9.25,0,0,1,197,.18a9,9,0,0,1,4,1,10.37,10.37,0,0,1,3.33,2.6,13.26,13.26,0,0,0,.73-2.63h2.1V9.54h-2.1q-2.22-6.9-7.76-6.9a4.73,4.73,0,0,0-3.23,1.06,3.47,3.47,0,0,0-1.22,2.73,3.63,3.63,0,0,0,.76,2.29,6.65,6.65,0,0,0,2,1.67c.83.46,2.16,1.12,4,2a58.85,58.85,0,0,1,5.23,2.75,11.31,11.31,0,0,1,3.2,2.92A7,7,0,0,1,209.42,22.31Z"/><path class="cls-1" d="M231.33,15a3.62,3.62,0,0,0-1.5.49,3.43,3.43,0,0,0-1,1.1c-.29.5-.81,1.51-1.55,3l-6.54,13.57q-2.19,4.5-3,6a8.14,8.14,0,0,1-1.8,2.35,3.68,3.68,0,0,1-2.5.87,2.76,2.76,0,0,1-1.79-.62,2,2,0,0,1-.75-1.59,2.17,2.17,0,0,1,.92-2,8.68,8.68,0,0,1,2.4-1,5.38,5.38,0,0,0,3-2.12,19,19,0,0,0,1.81-3.37l-8.51-15a3.9,3.9,0,0,0-1.09-1.4,2.65,2.65,0,0,0-1.37-.3V12.9H219V15h-.69c-1,0-1.54.24-1.54.74a4,4,0,0,0,.62,1.54l4.72,8.28,3.48-7.08a6.15,6.15,0,0,0,.74-2.07,1.13,1.13,0,0,0-.66-1,3.1,3.1,0,0,0-1.56-.37V12.9h7.24Z"/><path class="cls-1" d="M250.34,25.37a5,5,0,0,1-1.15,3.29A7.2,7.2,0,0,1,246,30.72a13.83,13.83,0,0,1-4.61.7,18.64,18.64,0,0,1-3.55-.34,11.74,11.74,0,0,1-3.13-1l-.87,1.25h-1.74l-.22-5.8h1.87a5.43,5.43,0,0,0,2.26,2.69,9.15,9.15,0,0,0,5.11,1.19,15,15,0,0,0,1.83-.12,4.64,4.64,0,0,0,1.89-.68,1.9,1.9,0,0,0,.9-1.72,1.55,1.55,0,0,0-.92-1.47,21,21,0,0,0-3.48-1.1q-3.07-.78-5-1.49a9,9,0,0,1-3.33-2,4.47,4.47,0,0,1-1.36-3.39,4.72,4.72,0,0,1,2.42-4.17,11.66,11.66,0,0,1,6.35-1.55,15.29,15.29,0,0,1,3.93.41,15,15,0,0,1,2.48.87l.54-1.14h1.78V17h-1.83a3.4,3.4,0,0,0-1.11-1.68,6.11,6.11,0,0,0-2.31-1.17,12.41,12.41,0,0,0-3.34-.41,15,15,0,0,0-3.12.33c-1,.23-1.55.76-1.55,1.59a1.24,1.24,0,0,0,.3.85,2.78,2.78,0,0,0,1,.62,22.64,22.64,0,0,0,2.59.76l2.21.56a23.25,23.25,0,0,1,6,2.26Q250.34,22,250.34,25.37Z"/><path class="cls-1" d="M266.94,26.71a8.87,8.87,0,0,1-2.81,3.62,6.53,6.53,0,0,1-3.77,1.09,5.87,5.87,0,0,1-3.89-1.07,4.43,4.43,0,0,1-1.54-2.4,14.21,14.21,0,0,1-.29-3V14.46h-3.37V12.4a8,8,0,0,0,3.68-.8,6.37,6.37,0,0,0,2.47-2.17,7.27,7.27,0,0,0,1.15-2.92h1.83V12.4h6.32v2.06H260.4V25.11a10.89,10.89,0,0,0,.26,2.8,1.17,1.17,0,0,0,1.26.86,2.18,2.18,0,0,0,1.76-.84A11.11,11.11,0,0,0,265,25.84Z"/><path class="cls-1" d="M330.69,31.06H318.3V29a5,5,0,0,0,2.19-.34,1.49,1.49,0,0,0,.79-1,9.11,9.11,0,0,0,.15-2V19a5.77,5.77,0,0,0-.66-2.73c-.44-.83-1.44-1.25-3-1.25a5,5,0,0,0-2.9.84,5.38,5.38,0,0,0-1.89,2.3,7.86,7.86,0,0,0-.65,3.27v4.33a8.65,8.65,0,0,0,.16,2,1.47,1.47,0,0,0,.86.94,5.87,5.87,0,0,0,2.26.32v2.06H303.45V29a5.16,5.16,0,0,0,2.16-.33,1.45,1.45,0,0,0,.8-1,9.28,9.28,0,0,0,.15-2v-7q0-2.34-1.23-3A4.84,4.84,0,0,0,303,15a6,6,0,0,0-2.77.69,5.17,5.17,0,0,0-2,1.79,4.78,4.78,0,0,0-.64,1.59,10.73,10.73,0,0,0-.14,2v4.71a8.65,8.65,0,0,0,.16,2,1.47,1.47,0,0,0,.89.94,5.88,5.88,0,0,0,2.25.32v2.06H288.54V29a5.35,5.35,0,0,0,2.17-.32,1.42,1.42,0,0,0,.82-.95,9.28,9.28,0,0,0,.16-2V18.11c0-1.4-.9-2.1-2.71-2.1h-1.13V14L297.27,12a24.19,24.19,0,0,1,.18,3.4,13,13,0,0,1,3.36-2.49A8.77,8.77,0,0,1,304.9,12a10.6,10.6,0,0,1,4.16.85,5.75,5.75,0,0,1,3,3.13,10.94,10.94,0,0,1,3.91-3.2,9.93,9.93,0,0,1,3.86-.78,8,8,0,0,1,5.45,1.68,6.45,6.45,0,0,1,1.92,5.13v6.9a11,11,0,0,0,.12,1.89,1.47,1.47,0,0,0,.71,1,3.68,3.68,0,0,0,1.89.37h.78Z"/><path class="cls-1" d="M350.22,25.37a4.93,4.93,0,0,1-1.15,3.29,7.14,7.14,0,0,1-3.15,2.06,13.83,13.83,0,0,1-4.61.7,18.71,18.71,0,0,1-3.55-.34,11.55,11.55,0,0,1-3.12-1l-.87,1.25H332l-.22-5.8h1.88a5.41,5.41,0,0,0,2.25,2.69A9.17,9.17,0,0,0,341,29.37a15.31,15.31,0,0,0,1.84-.12,4.65,4.65,0,0,0,1.88-.68,1.88,1.88,0,0,0,.91-1.72,1.54,1.54,0,0,0-.93-1.47,20.8,20.8,0,0,0-3.47-1.1q-3.09-.78-5-1.49a8.9,8.9,0,0,1-3.32-2,4.48,4.48,0,0,1-1.37-3.39A4.71,4.71,0,0,1,334,13.21a11.64,11.64,0,0,1,6.35-1.55,14.13,14.13,0,0,1,6.41,1.28l.53-1.14H349V17h-1.83a3.49,3.49,0,0,0-1.12-1.68,6.11,6.11,0,0,0-2.31-1.17,12.36,12.36,0,0,0-3.34-.41,14.87,14.87,0,0,0-3.11.33c-1,.23-1.55.76-1.55,1.59a1.24,1.24,0,0,0,.3.85,2.7,2.7,0,0,0,1,.62,22,22,0,0,0,2.59.76l2.21.56a23.54,23.54,0,0,1,6,2.26Q350.22,22,350.22,25.37Z"/><path class="cls-1" d="M287.24,21.09H273.58q0,.42.12,1.8a10.53,10.53,0,0,0,.62,2.82,5.31,5.31,0,0,0,1.8,2.43,5.46,5.46,0,0,0,3.43,1,8.66,8.66,0,0,0,2.85-.6,6.14,6.14,0,0,0,2.89-2.31L287,27.4q-2.62,4.2-8.33,4.2a14,14,0,0,1-4.66-.73,10.27,10.27,0,0,1-3.56-2.05,8.8,8.8,0,0,1-2.25-3.09,9.39,9.39,0,0,1-.78-3.82,10,10,0,0,1,1.3-5,9.54,9.54,0,0,1,3.73-3.64A11.14,11.14,0,0,1,278,11.93a9.55,9.55,0,0,1,5.14,1.31,8.09,8.09,0,0,1,3.1,3.4A10.16,10.16,0,0,1,287.24,21.09ZM281.73,19q0-5.05-4-5.06a3.42,3.42,0,0,0-3,1.4A6.52,6.52,0,0,0,273.62,19Z"/><path class="cls-1" d="M350,13a1.45,1.45,0,0,1,.1-.51,1.42,1.42,0,0,1,.28-.41,1.39,1.39,0,0,1,.41-.27,1.21,1.21,0,0,1,1,0,1.39,1.39,0,0,1,.41.27,1.65,1.65,0,0,1,.28.41,1.33,1.33,0,0,1,0,1,1.65,1.65,0,0,1-.28.41,1.42,1.42,0,0,1-.41.28,1.25,1.25,0,0,1-.51.1,1.24,1.24,0,0,1-.5-.1,1.34,1.34,0,0,1-.69-.69A1.44,1.44,0,0,1,350,13Zm.23,0a1.15,1.15,0,0,0,.08.41,1.36,1.36,0,0,0,.23.34,1.13,1.13,0,0,0,.34.23,1.15,1.15,0,0,0,.41.08,1.16,1.16,0,0,0,.42-.08,1.13,1.13,0,0,0,.34-.23,1.11,1.11,0,0,0,.22-.34,1,1,0,0,0,.09-.41,1,1,0,0,0-.09-.42,1,1,0,0,0-.56-.56,1,1,0,0,0-.42-.09,1,1,0,0,0-.41.09,1.11,1.11,0,0,0-.34.22,1.36,1.36,0,0,0-.23.34A1.16,1.16,0,0,0,350.26,13Zm.57-.75h.57a.59.59,0,0,1,.39.11.42.42,0,0,1,.13.33.4.4,0,0,1-.1.3.44.44,0,0,1-.25.11l.38.63h-.29l-.36-.61h-.2v.61h-.27Zm.27.64h.32l.11,0a.15.15,0,0,0,.09-.06.21.21,0,0,0,0-.12.18.18,0,0,0,0-.11.15.15,0,0,0-.09-.06.2.2,0,0,0-.11,0h-.32Z"/></g></g></g></g></g></svg>