<svg xmlns="http://www.w3.org/2000/svg" viewBox="0 0 676.83 686.28"><defs><style>.cls-1{fill:#2fb889;}.cls-2{fill:#2559a9;}.cls-3{fill:#f8fafb;}</style></defs><title>Asset 1</title><g id="Layer_2" data-name="Layer 2"><g id="Layer_1-2" data-name="Layer 1"><g id="Logo-2"><g id="Bottom"><path class="cls-1" d="M24.73,480.88H652.1a323.72,323.72,0,0,0,16.21-51.42H9.36A323.07,323.07,0,0,0,24.73,480.88Z"/><path class="cls-1" d="M329.05,686.28h18.73a341.16,341.16,0,0,0,119.6-25.16H209.45A341.16,341.16,0,0,0,329.05,686.28Z"/><path class="cls-1" d="M54.08,540.68h568.4A332.56,332.56,0,0,0,646,498.21H31.16A368,368,0,0,0,54.08,540.68Z"/><path class="cls-1" d="M163.34,643.8h349a349.45,349.45,0,0,0,45-32.7h-439A349.35,349.35,0,0,0,163.34,643.8Z"/><path class="cls-1" d="M96.83,593.78H580a349.66,349.66,0,0,0,30.74-36H65.25A318.25,318.25,0,0,0,96.83,593.78Z"/><path class="cls-1" d="M676.41,360.72H.42a311.61,311.61,0,0,0,5.87,51.41H670.54A310.54,310.54,0,0,0,676.41,360.72Z"/></g><g id="Top"><path class="cls-2" d="M676.69,348.14H.14C-5.23,161.32,141.87,5.51,328.69.14s342.63,141.73,348,328.55Q677,338.41,676.69,348.14Z"/><path class="cls-3" d="M9.36,331.09a384,384,0,0,0,50.86-39.68c25.15-23.75,48.35-55.89,98.65-55.89a96.14,96.14,0,0,1,83.83,43.6,235,235,0,0,0,75.46,52ZM337.72,211.77l-8.94,101.44A259.63,259.63,0,0,1,265.34,271a105.07,105.07,0,0,1-36.89-90c2-52.26,48.07-86.07,72.1-111.78a169.41,169.41,0,0,0,32.7-47.51H344.7A163.65,163.65,0,0,0,376.56,69c24,26,70.14,59.8,72.1,111.78a105.6,105.6,0,0,1-37.17,90,333.68,333.68,0,0,1-63.15,41.92Zm94.73,66.79A97,97,0,0,1,516.29,235c50.3,2,73.49,32.7,98.64,55.89a386.2,386.2,0,0,0,50.86,39.69H356.72a232.36,232.36,0,0,0,76.29-52Z"/></g></g></g></g></svg>